<svg width="394" height="206" viewBox="0 0 394 206" fill="none" xmlns="http://www.w3.org/2000/svg">
<path d="M4.74219 131.832C4.23597 131.81 3.99954 131.4 4.03291 130.601C4.08186 129.429 4.82028 127.404 6.24817 124.528C7.70271 121.653 9.83451 117.898 12.6436 113.265C11.6311 113.223 10.6664 113.316 9.7494 113.544C8.86015 113.748 8.3811 114.035 8.31224 114.405C8.28114 114.511 8.21009 114.615 8.09906 114.717C8.0158 114.793 7.88091 114.828 7.69441 114.82C7.26811 114.802 7.06386 114.58 7.08166 114.154C7.11058 113.461 7.68069 112.911 8.79198 112.504C9.90328 112.096 11.4447 111.934 13.4163 112.016L16.3642 107.575C16.5629 107.29 16.7761 106.979 17.0037 106.641C17.2324 106.277 17.4889 105.887 17.7731 105.472C18.0551 105.11 18.3693 104.937 18.7157 104.951C18.9288 104.96 19.0859 105.033 19.1869 105.171C19.289 105.282 19.3373 105.404 19.3318 105.537C19.3151 105.937 18.6844 106.978 17.4398 108.661C15.8843 110.758 15.0494 111.897 14.935 112.08C15.3347 112.096 15.9325 112.161 16.7284 112.275C17.5255 112.361 18.4675 112.494 19.5543 112.673C19.9528 112.716 20.1443 112.924 20.1287 113.297C20.1109 113.724 19.8623 113.927 19.3827 113.907C19.1962 113.899 18.8243 113.857 18.267 113.78C17.7108 113.677 17.1141 113.585 16.4769 113.505C15.8397 113.425 15.294 113.389 14.84 113.397L14.2388 113.412C8.4331 122.698 5.49515 128.5 5.42502 130.819L5.45164 131.141L5.4483 131.22C5.4305 131.647 5.19513 131.85 4.74219 131.832ZM13.4404 130.153C13.0141 130.135 12.8099 129.913 12.8277 129.487C12.851 128.927 13.0876 128.056 13.5373 126.874C13.9881 125.665 14.566 124.288 15.2711 122.743C16.0039 121.172 16.7784 119.563 17.5945 117.916C18.0597 117.001 18.5372 116.113 19.0268 115.253C19.5176 114.366 19.9767 113.598 20.4042 112.948C24.6255 106.452 27.2157 103.224 28.1749 103.264C28.5479 103.28 28.7266 103.474 28.7111 103.847C28.701 104.087 28.4956 104.532 28.0948 105.182C27.7218 105.807 27.2238 106.547 26.6009 107.402C26.0058 108.231 25.3569 109.072 24.6541 109.923C23.9779 110.776 23.3312 111.563 22.7139 112.284C22.1243 112.98 21.6486 113.507 21.2867 113.866C20.9791 114.2 20.6249 114.692 20.2241 115.343C19.8499 115.995 19.4747 116.673 19.0983 117.378C18.723 118.056 18.4176 118.657 18.1822 119.181L16.5067 122.874C16.9286 122.358 17.4732 121.781 18.1404 121.141C19.7292 119.526 21.354 118.326 23.0148 117.541C24.7034 116.731 26.1073 116.349 27.2263 116.396C27.8391 116.422 28.3242 116.629 28.6816 117.017C29.0391 117.406 29.2067 117.867 29.1844 118.399C29.141 119.439 28.3888 121.155 26.9276 123.55C25.4676 125.918 24.7259 127.381 24.7025 127.941C24.6903 128.234 24.844 128.387 25.1637 128.4C25.9097 128.432 26.7335 128.199 27.635 127.703C28.5376 127.18 29.4729 126.512 30.441 125.698C31.4092 124.885 32.3506 124.07 33.2655 123.254C33.3765 123.152 33.5386 123.105 33.7517 123.114C34.1514 123.131 34.3445 123.299 34.3312 123.619C34.3189 123.912 34.1185 124.237 33.7299 124.594C31.8703 126.305 30.2827 127.573 28.9671 128.399C27.6515 129.225 26.2876 129.608 24.8755 129.549C23.8098 129.505 23.2975 128.99 23.3387 128.004C23.3542 127.631 23.4359 127.274 23.5836 126.933C23.7312 126.592 23.9638 126.135 24.2814 125.561L26.2716 122.001C26.7624 121.114 27.1271 120.369 27.3659 119.765C27.6046 119.161 27.7307 118.699 27.744 118.379C27.7629 117.926 27.4926 117.688 26.9331 117.665C25.9473 117.624 24.7716 117.975 23.4061 118.719C22.0683 119.437 20.6206 120.551 19.0629 122.06C18.1725 122.931 17.3598 123.858 16.6248 124.841C15.9164 125.826 15.3379 126.896 14.8893 128.052L14.3513 129.43C14.1437 129.929 13.8401 130.17 13.4404 130.153ZM35.6355 131.08C34.5164 131.033 33.6533 130.61 33.0461 129.81C32.439 129.011 32.1587 128.052 32.2054 126.933C32.2855 125.015 33.0073 123.07 34.3707 121.098C34.7405 120.553 35.1629 120.024 35.6381 119.51C36.1144 118.969 36.6295 118.457 37.1836 117.973C38.0151 117.233 38.8811 116.629 39.7815 116.16C40.6818 115.69 41.545 115.473 42.3709 115.507C43.7297 115.564 44.3825 116.232 44.3291 117.51C44.2623 119.109 43.2692 120.522 41.3496 121.75C39.5688 122.85 37.8392 123.365 36.1607 123.295C35.8676 123.282 35.6017 123.258 35.363 123.221C35.1521 123.159 34.9545 123.098 34.7702 123.036C34.4826 123.532 34.2156 124.174 33.9691 124.965C33.7226 125.755 33.5871 126.443 33.5626 127.03C33.4892 128.788 34.2251 129.7 35.7704 129.764C37.0227 129.816 38.2172 129.653 39.354 129.273C40.492 128.867 41.8592 128.083 43.4557 126.922C44.446 126.216 45.1904 125.647 45.6889 125.214C46.1874 124.781 46.727 124.323 47.3076 123.84C47.4719 123.74 47.6207 123.693 47.7539 123.699C47.8871 123.704 48.0187 123.75 48.1485 123.835C48.2784 123.921 48.34 124.043 48.3333 124.203C48.3211 124.496 48.0374 124.898 47.4823 125.409C47.0116 125.816 46.5131 126.249 45.9868 126.708C45.4617 127.139 44.6357 127.745 43.5088 128.526C42.2987 129.383 40.9903 130.035 39.5837 130.484C38.1771 130.932 36.861 131.131 35.6355 131.08ZM35.9743 122.006C36.8268 122.041 37.645 121.942 38.4288 121.708C39.2126 121.474 39.9614 121.118 40.6753 120.641C42.2684 119.56 43.0862 118.513 43.1284 117.5C43.1473 117.047 42.877 116.809 42.3175 116.786C41.2518 116.741 39.9856 117.342 38.519 118.589C37.7996 119.2 37.2023 119.762 36.7271 120.276C36.2797 120.764 35.8566 121.307 35.458 121.904C35.6157 121.964 35.7878 121.998 35.9743 122.006ZM57.8208 132.606C56.3287 132.544 55.6033 132.02 55.6444 131.034C55.67 130.421 55.9088 129.818 56.3606 129.223C56.8392 128.629 57.3954 128.091 58.0293 127.611C58.6633 127.13 59.2522 126.768 59.7962 126.523C59.9594 126.45 60.1759 126.379 60.4457 126.31C60.7421 126.243 60.9836 126.213 61.1701 126.221C61.3832 126.229 61.4864 126.314 61.4798 126.474C61.4742 126.607 61.3216 126.747 61.0218 126.895C59.7717 127.43 58.7831 128.096 58.0559 128.893C57.3564 129.664 56.9961 130.303 56.975 130.81C56.955 131.289 57.3579 131.546 58.1839 131.581C58.8766 131.61 59.6298 131.468 60.4436 131.155C61.284 130.843 62.0756 130.422 62.8183 129.892C63.5877 129.364 64.2255 128.79 64.7318 128.171C65.2381 127.551 65.5035 126.949 65.5279 126.362C65.5446 125.963 65.4264 125.598 65.1733 125.267C64.9469 124.937 64.5573 124.68 64.0044 124.497L61.4001 123.588C60.7429 123.347 60.275 123.047 59.9964 122.689C59.7178 122.33 59.5874 121.937 59.6052 121.511C59.6385 120.712 59.9616 120.005 60.5745 119.39C61.214 118.776 61.9945 118.301 62.9159 117.966C63.8374 117.631 64.7244 117.481 65.577 117.517C66.4296 117.552 67.1667 117.797 67.7883 118.25C68.4111 118.676 68.708 119.236 68.6791 119.928C68.6624 120.328 68.5269 120.696 68.2727 121.032C68.0451 121.37 67.7847 121.532 67.4916 121.52C67.0387 121.501 66.82 121.305 66.8356 120.932C66.8412 120.799 66.9144 120.642 67.0554 120.461C67.2242 120.255 67.3125 120.058 67.3203 119.872C67.3536 119.072 66.7575 118.647 65.5319 118.596C64.8658 118.568 64.1936 118.687 63.5153 118.952C62.8647 119.192 62.3169 119.529 61.8716 119.964C61.4264 120.399 61.1927 120.884 61.1705 121.416C61.1482 121.949 61.6633 122.398 62.7157 122.762L65.2401 123.668C66.0027 123.94 66.5217 124.295 66.797 124.734C67.0734 125.146 67.201 125.605 67.1799 126.111C67.1298 127.31 66.3454 128.518 64.8266 129.736C62.3674 131.742 60.0322 132.699 57.8208 132.606ZM69.3734 134.53C68.8672 134.509 68.6307 134.099 68.6641 133.299C68.713 132.127 69.4515 130.103 70.8794 127.226C72.3339 124.351 74.4657 120.597 77.2748 115.963C76.2623 115.921 75.2976 116.014 74.3806 116.243C73.4913 116.446 73.0123 116.733 72.9434 117.104C72.9123 117.209 72.8413 117.313 72.7303 117.415C72.647 117.492 72.5121 117.526 72.3256 117.518C71.8993 117.501 71.6951 117.278 71.7129 116.852C71.7418 116.159 72.3119 115.609 73.4232 115.202C74.5345 114.795 76.0759 114.632 78.0475 114.715L80.9954 110.274C81.1941 109.988 81.4073 109.677 81.6349 109.34C81.8636 108.975 82.1201 108.586 82.4043 108.171C82.6863 107.809 83.0005 107.635 83.3469 107.649C83.56 107.658 83.7171 107.732 83.8181 107.869C83.9202 107.98 83.9685 108.102 83.963 108.236C83.9463 108.635 83.3156 109.677 82.071 111.359C80.5155 113.456 79.6806 114.596 79.5662 114.778C79.9659 114.795 80.5637 114.86 81.3596 114.973C82.1567 115.06 83.0987 115.192 84.1855 115.371C84.584 115.415 84.7755 115.623 84.7599 115.996C84.7421 116.422 84.4934 116.625 84.0139 116.605C83.8274 116.597 83.4555 116.555 82.8982 116.478C82.342 116.375 81.7453 116.284 81.1081 116.204C80.4709 116.124 79.9252 116.087 79.4712 116.095L78.87 116.11C73.0643 125.396 70.1263 131.198 70.0562 133.518L70.0828 133.839L70.0795 133.919C70.0617 134.345 69.8263 134.549 69.3734 134.53ZM89.6748 133.976C88.3692 133.922 87.756 132.949 87.835 131.057C87.8772 130.045 88.1682 128.829 88.7078 127.41C85.3271 131.032 82.7176 132.805 80.8792 132.728C79.3605 132.665 78.6395 131.714 78.7163 129.876C78.7452 129.183 78.8863 128.361 79.1395 127.411C79.4204 126.435 79.7691 125.436 80.1855 124.412C80.6285 123.39 81.0954 122.435 81.5862 121.548C82.0769 120.661 82.5605 119.947 83.0368 119.407C83.2044 119.227 83.4081 119.142 83.6479 119.152C83.7811 119.158 83.9121 119.216 84.0409 119.329C84.1708 119.414 84.2318 119.55 84.224 119.737C84.2174 119.896 84.1147 120.119 83.9159 120.404C82.6346 122.326 81.7103 124.009 81.1429 125.453C80.4334 127.105 80.053 128.544 80.0019 129.769C79.954 130.915 80.2232 131.5 80.8093 131.524C81.1823 131.54 81.683 131.374 82.3114 131.027C82.9398 130.679 83.5848 130.252 84.2465 129.746C84.936 129.215 85.5305 128.719 86.0301 128.259C87.4212 126.903 88.683 125.448 89.8155 123.893C90.3262 123.167 90.7826 122.466 91.1845 121.789C91.6142 121.086 92.005 120.355 92.357 119.596C92.5025 119.308 92.6179 119.1 92.7034 118.97C92.8167 118.814 92.9665 118.74 93.153 118.748C93.7126 118.772 93.9834 118.996 93.9656 119.423C93.9545 119.689 93.8535 119.872 93.6625 119.971C90.7146 125.372 89.1973 129.112 89.1105 131.19C89.0871 131.75 89.1237 132.152 89.2203 132.396C89.318 132.614 89.5 132.728 89.7665 132.739C90.1395 132.755 90.7223 132.539 91.515 132.091C92.3343 131.645 93.2974 130.952 94.4043 130.01L98.7609 126.349C98.9829 126.145 99.1872 126.046 99.3737 126.054C99.8 126.072 100.005 126.281 99.9881 126.68C99.9737 127.027 99.0954 127.924 97.3535 129.373C96.6063 130.009 95.9435 130.542 95.3651 130.971C94.7867 131.401 94.2504 131.779 93.7564 132.105C92.8238 132.707 92.0039 133.166 91.2967 133.484C90.5884 133.828 90.0478 133.992 89.6748 133.976ZM110.075 137.03C109.862 137.021 109.6 136.903 109.289 136.677C109.004 136.478 108.785 136.282 108.633 136.089C108.33 135.676 108.137 135.188 108.054 134.624C107.971 134.06 107.943 133.445 107.971 132.779C107.994 132.219 108.032 131.62 108.086 130.982C108.167 130.318 108.276 129.615 108.414 128.874C107.688 129.644 106.869 130.397 105.958 131.133C105.074 131.844 104.169 132.42 103.243 132.861C102.344 133.304 101.495 133.509 100.695 133.476C98.697 133.392 97.7424 132.285 97.8314 130.153C97.9237 127.942 98.7853 125.843 100.416 123.856C101.231 122.875 102.151 121.94 103.176 121.048C104.201 120.157 105.271 119.441 106.388 118.9C107.505 118.36 108.596 118.112 109.662 118.156C110.461 118.19 111.155 118.526 111.742 119.164C111.8 119.06 111.873 118.889 111.963 118.653C112.08 118.417 112.239 118.117 112.441 117.752C113.139 116.393 113.905 114.984 114.74 113.524C115.576 112.038 116.321 110.814 116.975 109.854C117.713 108.791 118.389 108.272 119.002 108.297C119.428 108.315 119.627 108.657 119.599 109.323C119.551 110.469 118.361 113.101 116.027 117.221C115.883 117.455 115.625 117.885 115.252 118.51C114.907 119.109 114.491 119.813 114.003 120.62C113.543 121.401 113.07 122.182 112.584 122.962C112.098 123.743 111.655 124.445 111.255 125.069C110.883 125.667 110.612 126.083 110.442 126.316C110.099 127.503 109.825 128.639 109.619 129.725C109.415 130.784 109.289 131.886 109.241 133.032C109.223 133.458 109.221 133.845 109.233 134.192C109.271 134.568 109.365 134.865 109.516 135.085C109.642 135.25 109.784 135.376 109.94 135.463C110.096 135.576 110.278 135.677 110.488 135.766C110.805 135.859 110.957 136.053 110.944 136.346C110.924 136.825 110.635 137.053 110.075 137.03ZM112.651 120.403C113.736 118.713 114.696 117.139 115.531 115.679C116.367 114.193 117.052 112.793 117.587 111.481C116.464 112.822 115.51 114.25 114.726 115.766C113.942 117.281 113.251 118.827 112.651 120.403ZM100.466 132.265C101.238 132.297 102.061 132.078 102.935 131.607C103.837 131.111 104.689 130.52 105.491 129.833C106.211 129.222 106.878 128.596 107.491 127.954C108.107 127.286 108.682 126.603 109.219 125.905C109.471 124.981 109.749 124.072 110.053 123.177C110.384 122.283 110.741 121.391 111.126 120.499C110.727 119.816 110.142 119.458 109.369 119.425C108.57 119.392 107.664 119.661 106.653 120.233C105.669 120.779 104.706 121.473 103.764 122.314C102.848 123.156 102.053 123.964 101.38 124.737C99.9737 126.466 99.2286 128.33 99.1452 130.328C99.0929 131.58 99.533 132.226 100.466 132.265ZM112.907 146.837C111.282 146.769 110.509 145.776 110.59 143.857C110.657 142.232 111.069 140.675 111.826 139.185C111.943 138.923 112.122 138.797 112.362 138.807C112.841 138.827 113.072 139.05 113.054 139.476C113.05 139.583 113.004 139.715 112.918 139.871C112.857 140.055 112.782 140.252 112.693 140.462C112.485 140.961 112.317 141.487 112.187 142.042C112.057 142.598 111.979 143.181 111.953 143.794C111.924 144.487 111.998 144.957 112.175 145.205C112.351 145.452 112.586 145.582 112.879 145.594C113.572 145.623 114.398 145.338 115.357 144.737C116.343 144.138 117.371 143.166 118.441 141.823C119.202 140.867 119.997 139.726 120.826 138.4C121.656 137.073 122.547 135.549 123.499 133.827C124.768 131.558 125.946 129.245 127.032 126.889C126.33 127.713 125.603 128.51 124.85 129.28C124.097 130.049 123.294 130.763 122.439 131.421C120.148 133.22 118.27 134.089 116.805 134.028C115.047 133.955 114.21 132.906 114.294 130.881C114.324 130.161 114.493 129.301 114.802 128.3C115.138 127.299 115.586 126.157 116.146 124.873C116.235 124.663 116.282 124.491 116.288 124.358C116.295 124.198 116.341 124.04 116.428 123.884C116.893 122.969 117.642 121.959 118.676 120.855C118.899 120.624 119.091 120.512 119.251 120.518C119.65 120.535 119.838 120.837 119.813 121.423C117.07 125.125 115.643 128.295 115.533 130.932C115.486 132.051 115.903 132.629 116.782 132.666C117.768 132.707 119.168 132.085 120.983 130.8C122.276 129.893 123.48 128.862 124.595 127.708C125.712 126.527 126.724 125.301 127.631 124.031C128.254 123.176 128.753 122.423 129.127 121.771C129.529 121.094 129.775 120.638 129.865 120.401C130.015 120.007 130.21 119.815 130.449 119.825C130.956 119.846 131.2 120.07 131.182 120.496C131.173 120.709 131.05 121.091 130.814 121.642C130.605 122.167 130.339 122.796 130.014 123.53C129.543 124.605 128.869 126.044 127.992 127.849C127.116 129.654 126.026 131.798 124.721 134.279C123.098 137.36 121.525 139.87 120.003 141.808C118.874 143.283 117.649 144.499 116.328 145.458C115.033 146.418 113.893 146.878 112.907 146.837ZM140.743 136.109C140.29 136.09 140.073 135.867 140.09 135.441C140.091 135.414 140.265 135.088 140.612 134.462C140.958 133.836 141.451 132.909 142.089 131.681L144.306 127.49C145.204 125.792 145.847 124.445 146.236 123.447C146.651 122.45 146.865 121.805 146.877 121.512C146.895 121.085 147.117 120.881 147.543 120.899C147.97 120.917 148.174 121.139 148.156 121.565C148.142 121.911 147.999 122.453 147.728 123.189C147.485 123.899 147.086 124.817 146.532 125.941L144.3 130.492C150.163 123.691 154.506 120.349 157.33 120.467C157.863 120.489 158.266 120.733 158.541 121.198C158.816 121.637 158.942 122.122 158.92 122.655C158.867 123.934 157.855 126.12 155.884 129.214C157.356 127.834 158.842 126.455 160.34 125.076C161.867 123.672 163.392 122.295 164.917 120.944C165.304 120.613 165.618 120.453 165.858 120.463C166.177 120.476 166.437 120.647 166.637 120.976C166.838 121.278 166.931 121.602 166.917 121.948C166.905 122.214 166.772 122.543 166.515 122.932C166.144 123.504 165.795 124.197 165.468 125.01C165.141 125.797 164.77 126.689 164.355 127.686C163.881 128.814 163.533 129.8 163.311 130.645C163.089 131.49 162.966 132.179 162.944 132.712C162.916 133.378 163.056 133.877 163.362 134.21C163.669 134.517 163.983 134.677 164.303 134.69C164.862 134.713 165.481 134.593 166.16 134.327C166.838 134.062 167.396 133.792 167.835 133.516C168.711 132.993 169.632 132.337 170.599 131.55C171.567 130.736 172.496 129.921 173.384 129.104C173.495 129.002 173.657 128.955 173.87 128.964C174.27 128.981 174.463 129.149 174.449 129.469C174.437 129.762 174.237 130.087 173.848 130.445C172.738 131.466 171.74 132.345 170.856 133.082C169.972 133.792 169.134 134.371 168.341 134.819C167.822 135.091 167.197 135.371 166.464 135.661C165.731 135.951 164.952 136.078 164.126 136.044C163.353 136.012 162.711 135.745 162.198 135.243C161.712 134.742 161.501 133.706 161.567 132.134C161.593 131.521 161.729 130.806 161.977 129.989C162.226 129.145 162.585 128.213 163.054 127.192L165.383 122.244L159.428 127.761C158.734 128.399 158.164 128.936 157.719 129.371C157.274 129.806 156.912 130.165 156.633 130.446C156.105 130.958 155.63 131.459 155.209 131.948C154.815 132.439 154.477 132.865 154.195 133.227C153.996 133.512 153.777 133.65 153.537 133.64C153.084 133.621 152.866 133.425 152.881 133.052C152.916 132.226 153.741 130.352 155.358 127.431C156.974 124.509 157.795 122.755 157.819 122.169C157.831 121.902 157.543 121.757 156.957 121.732C154.586 121.633 150.201 125.334 143.802 132.833C143.266 133.532 142.382 134.576 141.149 135.965C141.065 136.069 140.93 136.116 140.743 136.109ZM175.748 136.929C174.629 136.883 173.766 136.46 173.158 135.66C172.551 134.861 172.271 133.902 172.318 132.783C172.398 130.864 173.12 128.92 174.483 126.948C174.853 126.403 175.275 125.873 175.75 125.36C176.227 124.819 176.742 124.307 177.296 123.823C178.127 123.083 178.993 122.479 179.894 122.009C180.794 121.54 181.657 121.322 182.483 121.357C183.842 121.414 184.495 122.081 184.441 123.36C184.375 124.959 183.381 126.372 181.462 127.6C179.681 128.7 177.951 129.215 176.273 129.145C175.98 129.132 175.714 129.108 175.475 129.071C175.264 129.009 175.067 128.947 174.883 128.886C174.595 129.381 174.328 130.024 174.081 130.815C173.835 131.605 173.699 132.293 173.675 132.879C173.601 134.638 174.337 135.549 175.883 135.614C177.135 135.666 178.33 135.503 179.466 135.123C180.604 134.717 181.971 133.933 183.568 132.772C184.558 132.066 185.303 131.497 185.801 131.064C186.3 130.631 186.839 130.173 187.42 129.69C187.584 129.59 187.733 129.543 187.866 129.549C187.999 129.554 188.131 129.6 188.261 129.685C188.391 129.771 188.452 129.893 188.446 130.053C188.433 130.346 188.15 130.748 187.595 131.259C187.124 131.666 186.625 132.099 186.099 132.557C185.574 132.989 184.748 133.595 183.621 134.376C182.411 135.233 181.103 135.885 179.696 136.334C178.289 136.782 176.973 136.981 175.748 136.929ZM176.087 127.856C176.939 127.891 177.757 127.792 178.541 127.558C179.325 127.324 180.074 126.968 180.788 126.491C182.381 125.409 183.198 124.363 183.241 123.35C183.26 122.897 182.989 122.659 182.43 122.636C181.364 122.591 180.098 123.192 178.631 124.439C177.912 125.049 177.315 125.612 176.839 126.126C176.392 126.614 175.969 127.157 175.57 127.754C175.728 127.814 175.9 127.848 176.087 127.856ZM185.756 139.389C185.25 139.368 185.014 138.958 185.047 138.158C185.096 136.986 185.834 134.962 187.262 132.086C188.717 129.21 190.849 125.456 193.658 120.823C192.645 120.78 191.681 120.873 190.764 121.102C189.874 121.305 189.395 121.592 189.326 121.963C189.295 122.068 189.224 122.172 189.113 122.274C189.03 122.351 188.895 122.385 188.709 122.377C188.282 122.36 188.078 122.138 188.096 121.711C188.125 121.019 188.695 120.469 189.806 120.061C190.917 119.654 192.459 119.491 194.431 119.574L197.378 115.133C197.577 114.848 197.79 114.536 198.018 114.199C198.247 113.835 198.503 113.445 198.787 113.03C199.069 112.668 199.383 112.494 199.73 112.509C199.943 112.518 200.1 112.591 200.201 112.728C200.303 112.84 200.351 112.962 200.346 113.095C200.329 113.495 199.699 114.536 198.454 116.219C196.898 118.316 196.064 119.455 195.949 119.637C196.349 119.654 196.947 119.719 197.743 119.832C198.54 119.919 199.482 120.052 200.568 120.23C200.967 120.274 201.158 120.482 201.143 120.855C201.125 121.281 200.876 121.484 200.397 121.464C200.21 121.456 199.838 121.414 199.281 121.338C198.725 121.234 198.128 121.143 197.491 121.063C196.854 120.983 196.308 120.947 195.854 120.954L195.253 120.969C189.447 130.255 186.509 136.058 186.439 138.377L186.466 138.698L186.462 138.778C186.445 139.204 186.209 139.408 185.756 139.389ZM194.455 137.711C194.028 137.693 193.824 137.471 193.842 137.044C193.865 136.485 194.102 135.614 194.551 134.432C195.002 133.223 195.58 131.846 196.285 130.3C197.018 128.73 197.793 127.121 198.609 125.473C199.074 124.558 199.551 123.671 200.041 122.811C200.532 121.924 200.991 121.155 201.418 120.506C205.64 114.01 208.23 110.782 209.189 110.822C209.562 110.837 209.741 111.032 209.725 111.405C209.715 111.644 209.51 112.09 209.109 112.74C208.736 113.365 208.238 114.105 207.615 114.96C207.02 115.789 206.371 116.629 205.668 117.481C204.992 118.333 204.345 119.12 203.728 119.842C203.139 120.538 202.663 121.065 202.301 121.424C201.993 121.758 201.639 122.25 201.238 122.901C200.864 123.552 200.489 124.231 200.112 124.935C199.737 125.614 199.432 126.215 199.196 126.739L197.521 130.432C197.943 129.916 198.487 129.338 199.155 128.699C200.743 127.084 202.368 125.884 204.029 125.099C205.718 124.289 207.121 123.907 208.24 123.954C208.853 123.979 209.338 124.186 209.696 124.575C210.053 124.963 210.221 125.424 210.199 125.957C210.155 126.996 209.403 128.713 207.942 131.107C206.482 133.475 205.74 134.939 205.717 135.498C205.704 135.791 205.858 135.945 206.178 135.958C206.924 135.989 207.748 135.757 208.649 135.261C209.552 134.738 210.487 134.069 211.455 133.256C212.423 132.442 213.365 131.627 214.28 130.812C214.391 130.709 214.553 130.663 214.766 130.672C215.166 130.688 215.359 130.857 215.345 131.176C215.333 131.469 215.133 131.795 214.744 132.152C212.884 133.863 211.297 135.131 209.981 135.957C208.666 136.783 207.302 137.166 205.89 137.107C204.824 137.063 204.312 136.547 204.353 135.562C204.368 135.189 204.45 134.832 204.598 134.491C204.745 134.15 204.978 133.693 205.296 133.119L207.286 129.559C207.777 128.672 208.141 127.926 208.38 127.322C208.619 126.718 208.745 126.257 208.758 125.937C208.777 125.484 208.507 125.246 207.947 125.222C206.961 125.181 205.786 125.533 204.42 126.276C203.082 126.994 201.635 128.108 200.077 129.618C199.187 130.488 198.374 131.415 197.639 132.399C196.931 133.383 196.352 134.454 195.904 135.609L195.366 136.988C195.158 137.486 194.854 137.727 194.455 137.711ZM215.929 137.686C213.771 137.596 212.742 136.339 212.843 133.914C212.89 132.795 213.205 131.634 213.789 130.431C214.374 129.227 215.127 128.125 216.049 127.122C216.973 126.093 217.982 125.268 219.075 124.646C220.196 124.026 221.315 123.739 222.434 123.786C223.42 123.827 224.124 124.23 224.546 124.995C224.967 125.76 225.159 126.595 225.122 127.501C225.071 128.7 224.781 129.915 224.249 131.148C223.718 132.353 223.018 133.458 222.149 134.463C221.279 135.468 220.312 136.268 219.246 136.864C218.18 137.46 217.074 137.734 215.929 137.686ZM215.942 136.406C216.102 136.412 216.196 136.403 216.224 136.377C217.268 136.288 218.243 135.955 219.148 135.379C220.053 134.802 220.844 134.075 221.521 133.196C222.226 132.291 222.774 131.313 223.165 130.262C223.556 129.21 223.773 128.165 223.816 127.126C223.842 126.513 223.688 126.027 223.357 125.666C223.025 125.305 222.592 125.113 222.059 125.091C221.287 125.059 220.447 125.344 219.542 125.947C218.662 126.551 217.816 127.329 217.002 128.283C216.215 129.238 215.559 130.251 215.033 131.323C214.509 132.369 214.229 133.318 214.194 134.171C214.134 135.61 214.716 136.355 215.942 136.406ZM238.752 142.402C238.539 142.394 238.277 142.276 237.966 142.049C237.681 141.851 237.462 141.655 237.31 141.462C237.007 141.049 236.814 140.56 236.731 139.996C236.648 139.432 236.62 138.817 236.648 138.151C236.671 137.591 236.709 136.993 236.763 136.354C236.844 135.69 236.953 134.988 237.091 134.246C236.365 135.016 235.546 135.77 234.635 136.506C233.751 137.216 232.846 137.792 231.92 138.234C231.021 138.677 230.172 138.881 229.372 138.848C227.374 138.765 226.419 137.657 226.508 135.526C226.601 133.314 227.462 131.215 229.093 129.228C229.908 128.248 230.828 127.312 231.853 126.421C232.878 125.529 233.948 124.813 235.065 124.273C236.182 123.732 237.273 123.484 238.339 123.529C239.138 123.562 239.832 123.898 240.419 124.536C240.477 124.432 240.55 124.262 240.64 124.025C240.757 123.79 240.916 123.49 241.118 123.124C241.816 121.766 242.582 120.356 243.417 118.897C244.253 117.41 244.998 116.187 245.652 115.227C246.39 114.163 247.066 113.644 247.678 113.67C248.105 113.688 248.304 114.03 248.276 114.696C248.228 115.841 247.037 118.474 244.704 122.594C244.56 122.828 244.302 123.257 243.929 123.882C243.584 124.482 243.168 125.185 242.68 125.992C242.22 126.774 241.747 127.555 241.261 128.335C240.775 129.115 240.332 129.817 239.932 130.441C239.56 131.04 239.289 131.455 239.119 131.688C238.776 132.875 238.502 134.011 238.296 135.097C238.092 136.156 237.966 137.259 237.918 138.404C237.9 138.831 237.898 139.217 237.91 139.565C237.947 139.94 238.042 140.238 238.193 140.457C238.319 140.623 238.461 140.749 238.617 140.835C238.773 140.949 238.955 141.05 239.165 141.139C239.482 141.232 239.634 141.425 239.621 141.718C239.601 142.198 239.312 142.426 238.752 142.402ZM241.328 125.775C242.413 124.086 243.373 122.511 244.208 121.051C245.044 119.565 245.729 118.166 246.264 116.854C245.141 118.195 244.187 119.623 243.403 121.138C242.619 122.653 241.928 124.199 241.328 125.775ZM229.143 137.637C229.915 137.67 230.738 137.451 231.612 136.98C232.514 136.484 233.366 135.892 234.168 135.205C234.888 134.594 235.554 133.968 236.168 133.327C236.784 132.659 237.359 131.975 237.895 131.277C238.148 130.353 238.426 129.444 238.73 128.549C239.061 127.656 239.418 126.763 239.803 125.872C239.404 125.188 238.819 124.83 238.046 124.798C237.247 124.764 236.341 125.033 235.33 125.605C234.346 126.151 233.383 126.845 232.44 127.686C231.525 128.529 230.73 129.336 230.057 130.109C228.651 131.839 227.906 133.702 227.822 135.701C227.77 136.953 228.21 137.599 229.143 137.637ZM252.942 152.683C251.316 152.615 250.544 151.622 250.624 149.704C250.692 148.079 251.104 146.521 251.86 145.032C251.977 144.77 252.156 144.644 252.396 144.654C252.876 144.674 253.106 144.897 253.089 145.323C253.084 145.43 253.039 145.561 252.952 145.718C252.891 145.902 252.816 146.099 252.727 146.309C252.52 146.807 252.351 147.334 252.221 147.889C252.091 148.444 252.013 149.028 251.988 149.641C251.959 150.334 252.032 150.804 252.209 151.051C252.385 151.299 252.62 151.429 252.913 151.441C253.606 151.47 254.432 151.184 255.391 150.584C256.377 149.984 257.405 149.013 258.475 147.67C259.236 146.714 260.031 145.573 260.86 144.246C261.69 142.92 262.581 141.396 263.533 139.674C264.803 137.405 265.98 135.092 267.066 132.735C266.364 133.56 265.637 134.357 264.884 135.126C264.132 135.896 263.328 136.609 262.473 137.268C260.183 139.067 258.305 139.936 256.839 139.875C255.081 139.801 254.244 138.752 254.328 136.727C254.358 136.008 254.528 135.148 254.836 134.146C255.172 133.146 255.62 132.004 256.181 130.719C256.269 130.51 256.317 130.338 256.322 130.205C256.329 130.045 256.375 129.887 256.462 129.73C256.927 128.815 257.677 127.806 258.71 126.701C258.934 126.47 259.125 126.358 259.285 126.365C259.685 126.382 259.872 126.683 259.848 127.269C257.104 130.971 255.677 134.141 255.567 136.779C255.521 137.898 255.937 138.476 256.816 138.513C257.802 138.554 259.202 137.932 261.018 136.646C262.31 135.739 263.514 134.709 264.63 133.554C265.747 132.373 266.759 131.148 267.666 129.878C268.289 129.023 268.787 128.27 269.161 127.618C269.563 126.941 269.809 126.484 269.899 126.248C270.049 125.854 270.244 125.662 270.484 125.672C270.99 125.693 271.234 125.916 271.216 126.343C271.207 126.556 271.085 126.938 270.848 127.488C270.639 128.013 270.373 128.643 270.049 129.377C269.577 130.451 268.903 131.891 268.027 133.696C267.151 135.501 266.06 137.644 264.756 140.125C263.132 143.207 261.56 145.717 260.037 147.655C258.908 149.129 257.683 150.346 256.362 151.305C255.067 152.265 253.927 152.724 252.942 152.683ZM274.081 140.114C271.923 140.024 270.895 138.767 270.996 136.342C271.043 135.223 271.358 134.062 271.942 132.859C272.526 131.655 273.279 130.552 274.202 129.55C275.126 128.521 276.134 127.696 277.228 127.074C278.348 126.454 279.468 126.167 280.587 126.214C281.572 126.255 282.276 126.658 282.698 127.423C283.12 128.188 283.312 129.023 283.274 129.929C283.224 131.128 282.933 132.343 282.401 133.576C281.87 134.781 281.17 135.886 280.301 136.891C279.432 137.896 278.464 138.696 277.398 139.292C276.333 139.888 275.227 140.162 274.081 140.114ZM274.095 138.834C274.254 138.84 274.348 138.831 274.376 138.805C275.421 138.716 276.395 138.383 277.3 137.807C278.205 137.23 278.996 136.503 279.673 135.624C280.378 134.719 280.926 133.741 281.317 132.69C281.708 131.638 281.925 130.593 281.969 129.554C281.994 128.941 281.841 128.454 281.509 128.094C281.177 127.733 280.745 127.541 280.212 127.519C279.439 127.487 278.6 127.772 277.694 128.375C276.815 128.979 275.968 129.757 275.154 130.711C274.367 131.665 273.711 132.679 273.186 133.751C272.662 134.797 272.382 135.746 272.346 136.599C272.286 138.038 272.869 138.783 274.095 138.834ZM295.238 142.559C293.932 142.504 293.319 141.531 293.398 139.64C293.44 138.627 293.731 137.412 294.271 135.993C290.89 139.615 288.281 141.388 286.442 141.311C284.924 141.248 284.203 140.297 284.279 138.458C284.308 137.765 284.449 136.944 284.703 135.994C284.984 135.018 285.332 134.018 285.749 132.995C286.192 131.972 286.659 131.018 287.149 130.131C287.64 129.244 288.124 128.53 288.6 127.989C288.768 127.81 288.971 127.725 289.211 127.735C289.344 127.74 289.475 127.799 289.604 127.911C289.734 127.997 289.795 128.133 289.787 128.319C289.78 128.479 289.678 128.702 289.479 128.987C288.198 130.908 287.273 132.591 286.706 134.036C285.996 135.687 285.616 137.126 285.565 138.352C285.517 139.497 285.786 140.082 286.372 140.107C286.745 140.123 287.246 139.957 287.875 139.609C288.503 139.262 289.148 138.835 289.81 138.329C290.499 137.797 291.094 137.301 291.593 136.842C292.984 135.485 294.246 134.03 295.379 132.476C295.889 131.75 296.346 131.048 296.748 130.371C297.177 129.669 297.568 128.938 297.92 128.178C298.066 127.891 298.181 127.682 298.267 127.552C298.38 127.397 298.53 127.323 298.716 127.331C299.276 127.354 299.547 127.579 299.529 128.005C299.518 128.272 299.417 128.454 299.226 128.553C296.278 133.955 294.76 137.695 294.674 139.773C294.65 140.332 294.687 140.734 294.783 140.979C294.881 141.196 295.063 141.311 295.33 141.322C295.703 141.337 296.285 141.121 297.078 140.674C297.897 140.228 298.861 139.534 299.967 138.593L304.324 134.931C304.546 134.727 304.75 134.629 304.937 134.637C305.363 134.654 305.568 134.863 305.551 135.263C305.537 135.609 304.659 136.507 302.917 137.955C302.169 138.591 301.507 139.124 300.928 139.554C300.35 139.983 299.814 140.361 299.319 140.688C298.387 141.289 297.567 141.749 296.86 142.066C296.152 142.41 295.611 142.574 295.238 142.559ZM1.29111 179.969C0.864814 179.952 0.658897 179.77 0.673358 179.423C0.67892 179.29 0.738882 179.132 0.853242 178.95C0.968715 178.742 1.0692 178.572 1.15469 178.442L5.05357 171.359C6.73016 168.28 7.57568 166.567 7.59014 166.22C7.60572 165.847 7.80001 165.669 8.17302 165.684C8.67924 165.705 8.92123 165.982 8.89898 166.515C8.89119 166.702 8.75461 167.096 8.48924 167.699C8.22386 168.302 7.88854 168.982 7.48327 169.739C6.78598 171.098 6.20862 172.141 5.75117 172.869C6.58941 171.97 7.43875 171.125 8.29918 170.333C9.15961 169.542 10.0317 168.791 10.9154 168.081C13.5389 165.975 15.53 164.95 16.8888 165.007C17.8214 165.046 18.2693 165.505 18.2326 166.384C18.1992 167.184 17.4447 168.954 15.9691 171.695C14.4923 174.462 13.7384 176.219 13.7073 176.965C13.6928 177.311 13.8055 177.489 14.0453 177.499C14.1252 177.503 14.2462 177.481 14.4083 177.434C14.5981 177.362 14.7863 177.33 14.9728 177.338C15.4257 177.357 15.6433 177.579 15.6255 178.006C15.6033 178.539 15.0193 178.781 13.8736 178.733C13.3408 178.711 12.9594 178.575 12.7297 178.325C12.501 178.049 12.3956 177.697 12.4134 177.271C12.4667 175.992 13.2007 174.074 14.6153 171.518C16.0287 168.988 16.7465 167.457 16.7688 166.924C16.7821 166.604 16.6689 166.439 16.4291 166.429C15.843 166.405 14.8765 166.858 13.5299 167.789C12.0733 168.796 10.61 169.963 9.14003 171.289C7.67009 172.616 6.2584 174.145 4.90499 175.877L1.94557 179.636C1.7757 179.87 1.55754 179.981 1.29111 179.969ZM22.5827 180.578C21.4637 180.531 20.6006 180.108 19.9934 179.309C19.3862 178.51 19.106 177.551 19.1527 176.431C19.2328 174.513 19.9545 172.568 21.318 170.597C21.6877 170.052 22.1101 169.522 22.5853 169.008C23.0616 168.468 23.5768 167.955 24.1308 167.471C24.9624 166.732 25.8283 166.128 26.7287 165.658C27.6291 165.189 28.4922 164.971 29.3182 165.006C30.677 165.062 31.3297 165.73 31.2763 167.009C31.2095 168.608 30.2164 170.021 28.2969 171.248C26.5161 172.348 24.7864 172.863 23.1079 172.793C22.8148 172.781 22.5489 172.757 22.3103 172.72C22.0993 172.658 21.9017 172.596 21.7175 172.535C21.4299 173.03 21.1628 173.673 20.9163 174.463C20.6698 175.254 20.5343 175.942 20.5098 176.528C20.4364 178.287 21.1724 179.198 22.7177 179.263C23.9699 179.315 25.1645 179.151 26.3013 178.772C27.4392 178.366 28.8064 177.582 30.4029 176.421C31.3932 175.715 32.1376 175.145 32.6361 174.712C33.1346 174.28 33.6742 173.822 34.2548 173.339C34.4192 173.239 34.5679 173.192 34.7011 173.197C34.8343 173.203 34.9659 173.248 35.0958 173.334C35.2257 173.419 35.2873 173.542 35.2806 173.702C35.2684 173.995 34.9847 174.397 34.4296 174.907C33.9588 175.315 33.4603 175.748 32.9341 176.206C32.4089 176.638 31.5829 177.244 30.4561 178.024C29.2459 178.881 27.9376 179.534 26.531 179.982C25.1244 180.431 23.8083 180.629 22.5827 180.578ZM22.9215 171.504C23.7741 171.54 24.5923 171.441 25.3761 171.207C26.1598 170.972 26.9087 170.617 27.6225 170.139C29.2157 169.058 30.0334 168.011 30.0757 166.999C30.0946 166.546 29.8243 166.308 29.2648 166.284C28.199 166.24 26.9329 166.841 25.4662 168.088C24.7468 168.698 24.1495 169.26 23.6743 169.774C23.2269 170.263 22.8039 170.806 22.4053 171.403C22.5629 171.463 22.735 171.497 22.9215 171.504ZM34.9678 180.775C34.648 180.762 34.4932 180.635 34.5032 180.395C34.108 179.631 33.9589 178.091 34.0556 175.773C34.079 175.213 34.1501 174.469 34.269 173.54C34.3878 172.61 34.535 171.642 34.7105 170.635C34.886 169.629 35.0709 168.715 35.2653 167.896C35.4607 167.05 35.6595 166.445 35.8616 166.079C36.0348 165.766 36.2413 165.615 36.4811 165.625C36.9074 165.643 37.1133 165.825 37.0988 166.171C37.091 166.358 37.0566 166.543 36.9955 166.727C36.9356 166.885 36.8739 167.083 36.8106 167.32C36.4086 168.638 36.0699 170.038 35.7945 171.521C35.5457 173.006 35.3885 174.534 35.3228 176.106C35.2928 176.825 35.2928 177.466 35.3227 178.027C35.3793 178.59 35.4392 179.073 35.5024 179.476C36.2607 179.214 37.1105 178.676 38.052 177.861C38.9946 177.02 39.9144 176.084 40.8115 175.054C41.5409 174.203 42.2043 173.337 42.8017 172.455C43.4256 171.573 43.9142 170.739 44.2673 169.954C44.647 169.169 44.8474 168.523 44.8686 168.017C44.883 167.671 44.8531 167.429 44.7787 167.293C44.731 167.157 44.6688 167.048 44.5922 166.964C44.5157 166.881 44.4818 166.733 44.4907 166.52C44.5074 166.12 44.7156 165.929 45.1152 165.945C45.3816 165.957 45.6131 166.166 45.8096 166.575C46.006 166.983 46.0915 167.494 46.0659 168.107C45.9869 169.999 44.5574 172.595 41.7773 175.895C38.9161 179.218 36.6463 180.845 34.9678 180.775ZM49.5514 181.704C48.4324 181.657 47.5693 181.234 46.9621 180.435C46.3549 179.636 46.0747 178.676 46.1214 177.557C46.2015 175.639 46.9232 173.694 48.2867 171.723C48.6564 171.178 49.0788 170.648 49.554 170.134C50.0303 169.594 50.5455 169.081 51.0995 168.597C51.931 167.858 52.797 167.254 53.6974 166.784C54.5977 166.315 55.4609 166.097 56.2869 166.132C57.6457 166.188 58.2984 166.856 58.245 168.135C58.1782 169.734 57.1851 171.147 55.2655 172.374C53.4848 173.474 51.7551 173.989 50.0766 173.919C49.7835 173.907 49.5176 173.883 49.2789 173.846C49.068 173.784 48.8704 173.722 48.6861 173.661C48.3986 174.156 48.1315 174.799 47.885 175.589C47.6385 176.38 47.503 177.068 47.4785 177.654C47.4051 179.413 48.1411 180.324 49.6864 180.389C50.9386 180.441 52.1331 180.277 53.27 179.898C54.4079 179.491 55.7751 178.708 57.3716 177.547C58.3619 176.841 59.1063 176.271 59.6048 175.838C60.1033 175.406 60.6429 174.948 61.2235 174.465C61.3878 174.365 61.5366 174.318 61.6698 174.323C61.803 174.329 61.9346 174.374 62.0645 174.46C62.1944 174.545 62.256 174.668 62.2493 174.828C62.237 175.121 61.9534 175.523 61.3982 176.033C60.9275 176.441 60.429 176.874 59.9028 177.332C59.3776 177.764 58.5516 178.37 57.4248 179.15C56.2146 180.007 54.9063 180.66 53.4997 181.108C52.0931 181.557 50.777 181.755 49.5514 181.704ZM49.8902 172.63C50.7428 172.666 51.561 172.567 52.3447 172.333C53.1285 172.098 53.8774 171.743 54.5912 171.265C56.1844 170.184 57.0021 169.137 57.0444 168.125C57.0633 167.672 56.793 167.434 56.2335 167.41C55.1677 167.366 53.9015 167.967 52.4349 169.214C51.7155 169.824 51.1182 170.386 50.643 170.9C50.1956 171.389 49.7726 171.932 49.374 172.529C49.5316 172.589 49.7037 172.623 49.8902 172.63ZM58.1947 182.345C57.7684 182.327 57.5624 182.145 57.5769 181.799C57.5836 181.639 57.6302 181.481 57.7168 181.324C57.8301 181.169 57.9156 181.039 57.9733 180.935L61.9172 173.733C63.5937 170.654 64.4393 168.941 64.4537 168.594C64.4693 168.221 64.6636 168.043 65.0366 168.058C65.5428 168.079 65.7854 168.343 65.7642 168.849C65.7531 169.116 65.6154 169.537 65.3512 170.113C65.0869 170.689 64.7521 171.356 64.3469 172.113C63.6496 173.472 63.0722 174.515 62.6148 175.243C63.453 174.344 64.3023 173.499 65.1628 172.708C66.0232 171.916 66.8953 171.165 67.779 170.455C70.4025 168.349 72.3936 167.325 73.7524 167.381C74.6849 167.42 75.1329 167.879 75.0961 168.758C75.0605 169.611 74.763 170.026 74.2035 170.002C73.937 169.991 73.7467 169.756 73.6324 169.298C73.5658 168.975 73.386 168.807 73.0929 168.795C72.6399 168.776 71.7401 169.232 70.3934 170.164C68.9102 171.169 67.4053 172.374 65.8787 173.778C64.3788 175.184 62.7689 176.985 61.0491 179.182L58.9341 181.896C58.8219 182.024 58.7109 182.127 58.601 182.202C58.5166 182.305 58.3812 182.353 58.1947 182.345ZM94.6649 184.749C94.3985 184.738 94.2053 184.569 94.0854 184.244L93.5827 182.862C93.0555 181.425 92.2746 179.992 91.2401 178.56C90.2066 177.103 89.1815 175.765 88.1647 174.549C87.5285 175.723 86.9639 176.781 86.4709 177.721C85.9779 178.661 85.5272 179.55 85.1185 180.387C84.7111 181.197 84.2752 182.046 83.8111 182.934C83.6934 183.196 83.5014 183.322 83.2349 183.311C82.782 183.292 82.5633 183.096 82.5789 182.723C82.5856 182.563 82.6472 182.365 82.7638 182.13C82.9081 181.869 83.0391 181.608 83.1568 181.346C83.9196 179.696 84.8956 177.735 86.0848 175.463C87.3006 173.191 88.6718 170.713 90.1985 168.028C93.1087 162.891 95.4236 159.225 97.1434 157.028C97.5387 156.511 97.9184 156.046 98.2826 155.634C98.6734 155.224 99.002 155.024 99.2684 155.035C99.748 155.055 99.9772 155.318 99.9561 155.824C99.9272 156.517 98.838 158.313 96.6885 161.213C96.5186 161.446 96.2222 161.834 95.7991 162.377C95.3761 162.919 94.9242 163.514 94.4435 164.162C93.9639 164.782 93.5125 165.364 93.0895 165.907C92.6943 166.424 92.4256 166.786 92.2835 166.994L89.1674 172.589C95.7719 169.101 99.314 167.368 99.7936 167.388C100.22 167.405 100.423 167.654 100.403 168.134C100.391 168.427 100.222 168.633 99.8967 168.753C98.701 169.264 97.7496 169.678 97.0424 169.995C96.3619 170.314 95.6674 170.645 94.9591 170.989C94.3574 171.338 93.5792 171.759 92.6244 172.253C91.6963 172.748 90.5916 173.316 89.3105 173.956C89.921 174.675 90.5798 175.517 91.2869 176.481C91.9951 177.418 92.6483 178.392 93.2466 179.405C93.8726 180.392 94.3815 181.307 94.7734 182.151C95.1652 182.995 95.3505 183.67 95.3294 184.176C95.3127 184.576 95.0912 184.767 94.6649 184.749ZM97.1451 183.972C96.7188 183.954 96.5129 183.772 96.5273 183.425C96.5329 183.292 96.5929 183.134 96.7072 182.952C96.8227 182.744 96.9232 182.574 97.0087 182.444L100.908 175.361C102.584 172.282 103.43 170.569 103.444 170.222C103.46 169.849 103.654 169.671 104.027 169.686C104.533 169.707 104.775 169.984 104.753 170.517C104.745 170.704 104.609 171.098 104.343 171.701C104.078 172.304 103.743 172.984 103.337 173.741C102.64 175.1 102.063 176.143 101.605 176.871C102.443 175.972 103.293 175.127 104.153 174.335C105.014 173.544 105.886 172.793 106.769 172.083C109.393 169.977 111.384 168.952 112.743 169.009C113.675 169.048 114.123 169.507 114.087 170.386C114.053 171.186 113.299 172.956 111.823 175.697C110.346 178.464 109.592 180.221 109.561 180.967C109.547 181.313 109.659 181.491 109.899 181.501C109.979 181.505 110.1 181.483 110.262 181.436C110.452 181.364 110.64 181.332 110.827 181.34C111.28 181.359 111.497 181.581 111.479 182.008C111.457 182.541 110.873 182.783 109.728 182.735C109.195 182.713 108.813 182.577 108.584 182.327C108.355 182.051 108.25 181.699 108.267 181.273C108.321 179.994 109.055 178.077 110.469 175.52C111.883 172.99 112.601 171.459 112.623 170.926C112.636 170.606 112.523 170.441 112.283 170.431C111.697 170.407 110.731 170.86 109.384 171.791C107.927 172.798 106.464 173.965 104.994 175.291C103.524 176.618 102.112 178.147 100.759 179.879L97.7996 183.639C97.6297 183.872 97.4115 183.983 97.1451 183.972ZM118.437 184.58C117.318 184.533 116.455 184.11 115.847 183.311C115.24 182.512 114.96 181.553 115.007 180.434C115.087 178.515 115.809 176.57 117.172 174.599C117.542 174.054 117.964 173.524 118.439 173.01C118.916 172.47 119.431 171.957 119.985 171.473C120.816 170.734 121.682 170.13 122.583 169.66C123.483 169.191 124.346 168.973 125.172 169.008C126.531 169.064 127.184 169.732 127.13 171.011C127.064 172.61 126.07 174.023 124.151 175.25C122.37 176.35 120.64 176.865 118.962 176.795C118.669 176.783 118.403 176.759 118.164 176.722C117.953 176.66 117.756 176.598 117.571 176.537C117.284 177.032 117.017 177.675 116.77 178.465C116.524 179.256 116.388 179.944 116.364 180.53C116.29 182.289 117.026 183.2 118.572 183.265C119.824 183.317 121.018 183.153 122.155 182.774C123.293 182.368 124.66 181.584 126.257 180.423C127.247 179.717 127.992 179.147 128.49 178.714C128.989 178.282 129.528 177.824 130.109 177.341C130.273 177.241 130.422 177.194 130.555 177.199C130.688 177.205 130.82 177.25 130.95 177.336C131.08 177.421 131.141 177.544 131.135 177.704C131.122 177.997 130.839 178.399 130.284 178.909C129.813 179.317 129.314 179.75 128.788 180.208C128.263 180.64 127.437 181.246 126.31 182.026C125.1 182.883 123.792 183.536 122.385 183.984C120.978 184.433 119.662 184.631 118.437 184.58ZM118.775 175.506C119.628 175.542 120.446 175.443 121.23 175.209C122.014 174.974 122.763 174.619 123.477 174.141C125.07 173.06 125.887 172.013 125.93 171.001C125.949 170.548 125.678 170.31 125.119 170.287C124.053 170.242 122.787 170.843 121.32 172.09C120.601 172.7 120.003 173.262 119.528 173.776C119.081 174.265 118.658 174.808 118.259 175.405C118.417 175.465 118.589 175.499 118.775 175.506ZM142.635 185.671C141.969 185.643 141.46 185.355 141.109 184.806C140.759 184.258 140.6 183.584 140.633 182.785C140.642 182.571 140.669 182.252 140.713 181.827C140.759 181.375 140.805 180.91 140.852 180.432C140.926 179.928 140.984 179.49 141.027 179.118C141.07 178.719 141.107 178.481 141.137 178.402L141.103 178.24C140.849 178.577 140.497 179.016 140.048 179.557C139.625 180.1 139.174 180.655 138.697 181.222C138.247 181.764 137.84 182.241 137.476 182.653C136.889 183.296 136.254 183.789 135.573 184.135C134.891 184.48 134.27 184.641 133.711 184.617C133.045 184.59 132.499 184.233 132.074 183.548C131.65 182.837 131.465 181.841 131.518 180.562C131.569 179.337 131.826 177.973 132.29 176.471L130.991 177.858C130.796 178.037 130.63 178.19 130.491 178.318C130.353 178.419 130.218 178.466 130.085 178.461C129.951 178.455 129.82 178.396 129.692 178.284C129.591 178.147 129.544 177.984 129.552 177.798C129.56 177.611 129.633 177.454 129.772 177.327C130.05 177.045 130.372 176.685 130.738 176.246C131.131 175.782 131.58 175.254 132.085 174.661C132.508 174.118 133.217 173.107 134.213 171.627C134.384 171.367 134.603 171.243 134.869 171.254C135.322 171.273 135.54 171.496 135.522 171.922C135.517 172.055 135.442 172.239 135.299 172.473C135.157 172.681 134.953 173.086 134.688 173.689C134.156 174.921 133.731 176.144 133.413 177.359C133.097 178.547 132.914 179.727 132.865 180.899C132.823 181.911 132.862 182.58 132.982 182.906C133.103 183.204 133.296 183.359 133.563 183.37C134.415 183.406 135.468 182.809 136.72 181.58C137.082 181.222 137.628 180.617 138.357 179.767C139.088 178.89 139.851 177.868 140.647 176.7C141.444 175.505 142.083 174.278 142.563 173.017L143.235 171.283C143.325 171.047 143.504 170.934 143.77 170.945C144.25 170.965 144.48 171.202 144.461 171.655C144.454 171.814 144.29 172.235 143.968 172.915C143.647 173.569 143.31 174.609 142.957 176.036C142.733 176.934 142.519 177.886 142.317 178.891C142.142 179.898 142.035 180.868 141.996 181.801C141.921 183.586 142.177 184.49 142.763 184.515C143.243 184.535 143.866 184.307 144.633 183.832C145.4 183.357 146.213 182.751 147.071 182.012C147.929 181.274 148.709 180.506 149.409 179.708C150.052 179.014 150.713 178.214 151.391 177.309C152.07 176.403 152.641 175.492 153.107 174.578C153.6 173.638 153.861 172.821 153.889 172.128C153.918 171.436 153.751 170.975 153.387 170.746C153.335 170.717 152.977 170.649 152.314 170.541C151.944 170.472 151.766 170.251 151.781 169.878C151.799 169.452 152.021 169.248 152.448 169.266C153.3 169.301 153.97 169.569 154.456 170.07C154.969 170.572 155.208 171.236 155.173 172.062C155.08 174.3 153.467 177.128 150.335 180.547C147.147 184.044 144.58 185.752 142.635 185.671ZM164.876 199.05C163.251 198.982 162.478 197.989 162.558 196.071C162.626 194.446 163.038 192.888 163.794 191.398C163.912 191.136 164.091 191.01 164.33 191.02C164.81 191.04 165.041 191.263 165.023 191.69C165.019 191.796 164.973 191.928 164.887 192.084C164.825 192.269 164.751 192.466 164.662 192.676C164.454 193.174 164.285 193.701 164.155 194.256C164.025 194.811 163.948 195.395 163.922 196.008C163.893 196.7 163.967 197.17 164.143 197.418C164.32 197.666 164.555 197.796 164.848 197.808C165.541 197.837 166.366 197.551 167.326 196.95C168.312 196.351 169.34 195.38 170.41 194.037C171.17 193.081 171.965 191.94 172.795 190.613C173.624 189.286 174.515 187.762 175.468 186.041C176.737 183.772 177.915 181.459 179 179.102C178.299 179.927 177.572 180.724 176.819 181.493C176.066 182.262 175.262 182.976 174.407 183.634C172.117 185.434 170.239 186.303 168.774 186.241C167.015 186.168 166.178 185.119 166.263 183.094C166.293 182.375 166.462 181.514 166.771 180.513C167.106 179.513 167.554 178.37 168.115 177.086C168.204 176.876 168.251 176.705 168.257 176.571C168.263 176.412 168.31 176.253 168.397 176.097C168.862 175.182 169.611 174.173 170.645 173.068C170.868 172.837 171.06 172.725 171.219 172.732C171.619 172.748 171.807 173.05 171.782 173.636C169.039 177.338 167.612 180.508 167.502 183.146C167.455 184.265 167.871 184.843 168.75 184.879C169.736 184.92 171.137 184.298 172.952 183.013C174.244 182.106 175.448 181.075 176.564 179.921C177.681 178.74 178.693 177.514 179.6 176.244C180.223 175.39 180.722 174.636 181.096 173.985C181.498 173.308 181.744 172.851 181.834 172.614C181.983 172.22 182.178 172.028 182.418 172.038C182.924 172.059 183.168 172.283 183.151 172.709C183.142 172.923 183.019 173.304 182.783 173.855C182.574 174.38 182.307 175.01 181.983 175.743C181.511 176.818 180.837 178.258 179.961 180.063C179.085 181.868 177.995 184.011 176.69 186.492C175.067 189.574 173.494 192.083 171.972 194.022C170.843 195.496 169.618 196.712 168.296 197.672C167.002 198.632 165.862 199.091 164.876 199.05ZM186.016 186.481C183.857 186.391 182.829 185.134 182.93 182.709C182.977 181.59 183.292 180.429 183.876 179.225C184.46 178.022 185.214 176.919 186.136 175.917C187.06 174.888 188.069 174.062 189.162 173.441C190.282 172.82 191.402 172.533 192.521 172.58C193.507 172.621 194.211 173.024 194.633 173.789C195.054 174.554 195.246 175.39 195.208 176.296C195.158 177.495 194.867 178.71 194.336 179.942C193.805 181.148 193.105 182.253 192.235 183.258C191.366 184.262 190.399 185.063 189.333 185.659C188.267 186.255 187.161 186.529 186.016 186.481ZM186.029 185.2C186.189 185.207 186.283 185.198 186.31 185.172C187.355 185.082 188.33 184.749 189.235 184.173C190.139 183.597 190.931 182.869 191.608 181.99C192.313 181.086 192.861 180.108 193.252 179.056C193.642 178.005 193.86 176.96 193.903 175.921C193.929 175.308 193.775 174.821 193.443 174.46C193.112 174.1 192.679 173.908 192.146 173.886C191.374 173.853 190.534 174.139 189.628 174.741C188.749 175.345 187.903 176.124 187.089 177.078C186.302 178.032 185.645 179.046 185.12 180.118C184.596 181.164 184.316 182.113 184.281 182.966C184.221 184.404 184.803 185.149 186.029 185.2ZM207.172 188.926C205.867 188.871 205.254 187.898 205.333 186.006C205.375 184.994 205.666 183.778 206.205 182.36C202.825 185.982 200.215 187.754 198.377 187.678C196.858 187.614 196.137 186.663 196.214 184.825C196.243 184.132 196.384 183.311 196.637 182.36C196.918 181.385 197.267 180.385 197.683 179.361C198.126 178.339 198.593 177.384 199.084 176.497C199.575 175.61 200.058 174.897 200.534 174.356C200.702 174.176 200.906 174.091 201.145 174.101C201.279 174.107 201.41 174.166 201.538 174.278C201.668 174.363 201.729 174.499 201.722 174.686C201.715 174.846 201.612 175.068 201.413 175.354C200.132 177.275 199.208 178.958 198.64 180.402C197.931 182.054 197.551 183.493 197.499 184.718C197.452 185.864 197.721 186.449 198.307 186.474C198.68 186.489 199.181 186.323 199.809 185.976C200.437 185.628 201.082 185.202 201.744 184.695C202.434 184.164 203.028 183.668 203.528 183.209C204.919 181.852 206.181 180.397 207.313 178.843C207.824 178.117 208.28 177.415 208.682 176.738C209.112 176.035 209.503 175.304 209.855 174.545C210 174.257 210.115 174.049 210.201 173.919C210.314 173.763 210.464 173.69 210.651 173.697C211.21 173.721 211.481 173.946 211.463 174.372C211.452 174.638 211.351 174.821 211.16 174.92C208.212 180.322 206.695 184.061 206.608 186.14C206.585 186.699 206.621 187.101 206.718 187.345C206.816 187.563 206.998 187.677 207.264 187.688C207.637 187.704 208.22 187.488 209.013 187.041C209.832 186.595 210.795 185.901 211.902 184.959L216.258 181.298C216.48 181.094 216.685 180.996 216.871 181.003C217.298 181.021 217.502 181.23 217.486 181.629C217.471 181.976 216.593 182.873 214.851 184.322C214.104 184.958 213.441 185.491 212.863 185.92C212.284 186.35 211.748 186.728 211.254 187.054C210.321 187.656 209.501 188.115 208.794 188.433C208.086 188.777 207.545 188.941 207.172 188.926ZM224.729 189.298C224.303 189.281 224.097 189.098 224.112 188.752C224.117 188.619 224.177 188.461 224.291 188.279C224.407 188.07 224.507 187.901 224.593 187.771L228.492 180.688C230.168 177.608 231.014 175.895 231.028 175.549C231.044 175.176 231.238 174.997 231.611 175.013C232.117 175.034 232.359 175.311 232.337 175.844C232.329 176.03 232.193 176.425 231.927 177.028C231.662 177.631 231.327 178.311 230.921 179.068C230.224 180.426 229.647 181.47 229.189 182.198C230.028 181.299 230.877 180.454 231.737 179.662C232.598 178.871 233.47 178.12 234.354 177.409C236.977 175.304 238.968 174.279 240.327 174.336C241.26 174.375 241.707 174.834 241.671 175.713C241.637 176.513 240.883 178.283 239.407 181.023C237.93 183.791 237.177 185.548 237.145 186.294C237.131 186.64 237.244 186.818 237.483 186.828C237.563 186.832 237.684 186.81 237.846 186.763C238.036 186.691 238.224 186.659 238.411 186.667C238.864 186.686 239.081 186.908 239.064 187.335C239.041 187.867 238.457 188.11 237.312 188.062C236.779 188.04 236.398 187.904 236.168 187.654C235.939 187.378 235.834 187.026 235.852 186.6C235.905 185.321 236.639 183.403 238.053 180.847C239.467 178.317 240.185 176.785 240.207 176.253C240.22 175.933 240.107 175.768 239.867 175.758C239.281 175.734 238.315 176.187 236.968 177.118C235.511 178.125 234.048 179.292 232.578 180.618C231.108 181.945 229.697 183.474 228.343 185.206L225.384 188.965C225.214 189.198 224.996 189.309 224.729 189.298ZM246.021 189.907C244.902 189.86 244.039 189.437 243.432 188.638C242.824 187.839 242.544 186.879 242.591 185.76C242.671 183.842 243.393 181.897 244.756 179.926C245.126 179.381 245.548 178.851 246.023 178.337C246.5 177.796 247.015 177.284 247.569 176.8C248.4 176.061 249.266 175.457 250.167 174.987C251.067 174.517 251.93 174.3 252.756 174.334C254.115 174.391 254.768 175.059 254.714 176.338C254.648 177.936 253.655 179.35 251.735 180.577C249.954 181.677 248.225 182.192 246.546 182.122C246.253 182.11 245.987 182.085 245.748 182.049C245.537 181.987 245.34 181.925 245.156 181.864C244.868 182.359 244.601 183.002 244.354 183.792C244.108 184.583 243.972 185.271 243.948 185.857C243.875 187.616 244.611 188.527 246.156 188.592C247.408 188.644 248.603 188.48 249.739 188.101C250.877 187.694 252.245 186.911 253.841 185.75C254.831 185.044 255.576 184.474 256.074 184.041C256.573 183.608 257.112 183.151 257.693 182.668C257.857 182.568 258.006 182.521 258.139 182.526C258.272 182.532 258.404 182.577 258.534 182.663C258.664 182.748 258.725 182.871 258.719 183.031C258.706 183.324 258.423 183.726 257.868 184.236C257.397 184.644 256.898 185.077 256.372 185.535C255.847 185.967 255.021 186.573 253.894 187.353C252.684 188.21 251.376 188.863 249.969 189.311C248.563 189.76 247.246 189.958 246.021 189.907ZM246.36 180.833C247.212 180.869 248.03 180.77 248.814 180.535C249.598 180.301 250.347 179.945 251.061 179.468C252.654 178.387 253.472 177.34 253.514 176.328C253.533 175.875 253.262 175.637 252.703 175.613C251.637 175.569 250.371 176.17 248.904 177.416C248.185 178.027 247.588 178.589 247.112 179.103C246.665 179.592 246.242 180.134 245.843 180.732C246.001 180.792 246.173 180.825 246.36 180.833ZM260.071 190.494C258.952 190.447 258.089 190.024 257.482 189.225C256.875 188.425 256.594 187.466 256.641 186.347C256.721 184.429 257.443 182.484 258.806 180.512C259.176 179.967 259.599 179.438 260.074 178.924C260.55 178.383 261.065 177.871 261.619 177.387C262.451 176.648 263.317 176.043 264.217 175.574C265.117 175.104 265.981 174.887 266.807 174.921C268.165 174.978 268.818 175.646 268.765 176.925C268.698 178.523 267.705 179.936 265.785 181.164C264.004 182.264 262.275 182.779 260.596 182.709C260.303 182.697 260.037 182.672 259.799 182.635C259.588 182.573 259.39 182.512 259.206 182.451C258.918 182.946 258.651 183.588 258.405 184.379C258.158 185.169 258.023 185.858 257.998 186.444C257.925 188.202 258.661 189.114 260.206 189.178C261.458 189.23 262.653 189.067 263.79 188.687C264.928 188.281 266.295 187.497 267.891 186.336C268.882 185.63 269.626 185.061 270.125 184.628C270.623 184.195 271.163 183.737 271.743 183.254C271.908 183.154 272.056 183.107 272.19 183.113C272.323 183.118 272.454 183.164 272.584 183.249C272.714 183.335 272.776 183.458 272.769 183.617C272.757 183.91 272.473 184.312 271.918 184.823C271.447 185.23 270.949 185.663 270.422 186.122C269.897 186.553 269.071 187.16 267.944 187.94C266.734 188.797 265.426 189.449 264.019 189.898C262.613 190.346 261.297 190.545 260.071 190.494ZM260.41 181.42C261.262 181.455 262.081 181.356 262.864 181.122C263.648 180.888 264.397 180.532 265.111 180.055C266.704 178.974 267.522 177.927 267.564 176.914C267.583 176.461 267.313 176.223 266.753 176.2C265.687 176.155 264.421 176.757 262.955 178.003C262.235 178.614 261.638 179.176 261.163 179.69C260.715 180.178 260.292 180.721 259.894 181.318C260.051 181.378 260.223 181.412 260.41 181.42ZM282.915 194.29C282.702 194.281 282.44 194.163 282.129 193.937C281.844 193.738 281.625 193.542 281.473 193.349C281.17 192.936 280.977 192.447 280.894 191.883C280.811 191.32 280.783 190.705 280.811 190.038C280.834 189.479 280.872 188.88 280.926 188.242C281.007 187.578 281.116 186.875 281.254 186.134C280.528 186.904 279.709 187.657 278.798 188.393C277.914 189.103 277.009 189.68 276.083 190.121C275.184 190.564 274.335 190.769 273.535 190.736C271.537 190.652 270.582 189.545 270.671 187.413C270.764 185.202 271.625 183.103 273.256 181.116C274.071 180.135 274.991 179.2 276.016 178.308C277.041 177.417 278.111 176.701 279.228 176.16C280.345 175.62 281.436 175.372 282.502 175.416C283.301 175.45 283.995 175.785 284.582 176.424C284.64 176.32 284.713 176.149 284.803 175.913C284.92 175.677 285.079 175.377 285.281 175.012C285.979 173.653 286.745 172.244 287.58 170.784C288.416 169.298 289.161 168.074 289.815 167.114C290.553 166.051 291.229 165.532 291.841 165.557C292.268 165.575 292.467 165.917 292.439 166.583C292.391 167.729 291.201 170.361 288.867 174.481C288.723 174.715 288.465 175.145 288.092 175.77C287.747 176.369 287.331 177.072 286.843 177.879C286.383 178.661 285.91 179.442 285.424 180.222C284.938 181.003 284.495 181.705 284.095 182.329C283.723 182.927 283.452 183.343 283.282 183.576C282.939 184.763 282.665 185.899 282.459 186.985C282.255 188.044 282.129 189.146 282.081 190.292C282.063 190.718 282.061 191.105 282.073 191.452C282.11 191.828 282.205 192.125 282.356 192.345C282.482 192.51 282.624 192.636 282.78 192.723C282.936 192.836 283.118 192.937 283.328 193.026C283.645 193.119 283.797 193.312 283.784 193.606C283.764 194.085 283.475 194.313 282.915 194.29ZM285.491 177.663C286.576 175.973 287.536 174.399 288.371 172.939C289.207 171.452 289.892 170.053 290.427 168.741C289.304 170.082 288.35 171.51 287.566 173.025C286.782 174.541 286.091 176.087 285.491 177.663ZM273.306 189.525C274.078 189.557 274.901 189.338 275.775 188.867C276.677 188.371 277.529 187.78 278.331 187.092C279.051 186.482 279.717 185.856 280.331 185.214C280.947 184.546 281.522 183.863 282.058 183.164C282.311 182.241 282.589 181.332 282.893 180.437C283.224 179.543 283.581 178.651 283.966 177.759C283.567 177.075 282.982 176.717 282.209 176.685C281.41 176.652 280.504 176.921 279.493 177.493C278.509 178.039 277.546 178.732 276.604 179.574C275.688 180.416 274.893 181.224 274.22 181.997C272.814 183.726 272.069 185.59 271.985 187.588C271.933 188.84 272.373 189.486 273.306 189.525ZM290.826 191.778C289.707 191.731 288.843 191.308 288.236 190.509C287.629 189.709 287.349 188.75 287.396 187.631C287.476 185.713 288.197 183.768 289.561 181.796C289.931 181.251 290.353 180.722 290.828 180.208C291.304 179.667 291.82 179.155 292.374 178.671C293.205 177.932 294.071 177.327 294.972 176.858C295.872 176.388 296.735 176.171 297.561 176.205C298.92 176.262 299.573 176.93 299.519 178.209C299.452 179.807 298.459 181.22 296.54 182.448C294.759 183.548 293.029 184.063 291.351 183.993C291.058 183.981 290.792 183.956 290.553 183.919C290.342 183.857 290.145 183.796 289.96 183.735C289.673 184.23 289.406 184.872 289.159 185.663C288.913 186.453 288.777 187.142 288.753 187.728C288.679 189.486 289.415 190.398 290.961 190.462C292.213 190.514 293.407 190.351 294.544 189.971C295.682 189.565 297.049 188.781 298.646 187.62C299.636 186.914 300.38 186.345 300.879 185.912C301.377 185.479 301.917 185.021 302.498 184.538C302.662 184.438 302.811 184.391 302.944 184.397C303.077 184.402 303.209 184.448 303.339 184.533C303.469 184.619 303.53 184.742 303.523 184.901C303.511 185.194 303.228 185.596 302.672 186.107C302.202 186.514 301.703 186.947 301.177 187.406C300.652 187.838 299.826 188.444 298.699 189.224C297.489 190.081 296.18 190.734 294.774 191.182C293.367 191.63 292.051 191.829 290.826 191.778ZM291.164 182.704C292.017 182.74 292.835 182.64 293.619 182.406C294.403 182.172 295.152 181.816 295.865 181.339C297.459 180.258 298.276 179.211 298.319 178.198C298.337 177.746 298.067 177.507 297.508 177.484C296.442 177.44 295.176 178.041 293.709 179.287C292.99 179.898 292.392 180.46 291.917 180.974C291.47 181.462 291.047 182.005 290.648 182.602C290.806 182.662 290.978 182.696 291.164 182.704ZM313.67 195.574C313.456 195.565 313.194 195.447 312.884 195.221C312.598 195.022 312.38 194.826 312.228 194.633C311.925 194.22 311.731 193.731 311.648 193.168C311.565 192.604 311.537 191.989 311.565 191.322C311.588 190.763 311.627 190.164 311.68 189.526C311.761 188.862 311.871 188.159 312.008 187.418C311.282 188.188 310.463 188.941 309.552 189.677C308.668 190.387 307.763 190.964 306.838 191.405C305.938 191.848 305.089 192.053 304.29 192.02C302.291 191.936 301.337 190.829 301.426 188.697C301.518 186.486 302.38 184.387 304.011 182.4C304.826 181.419 305.746 180.484 306.77 179.592C307.795 178.701 308.866 177.985 309.983 177.444C311.099 176.904 312.191 176.656 313.257 176.7C314.056 176.734 314.749 177.07 315.336 177.708C315.394 177.604 315.468 177.433 315.558 177.197C315.674 176.961 315.834 176.661 316.036 176.296C316.733 174.937 317.499 173.528 318.334 172.068C319.17 170.582 319.915 169.358 320.569 168.398C321.308 167.335 321.983 166.816 322.596 166.841C323.022 166.859 323.221 167.201 323.194 167.867C323.146 169.013 321.955 171.645 319.621 175.765C319.478 175.999 319.22 176.429 318.847 177.054C318.501 177.653 318.085 178.356 317.598 179.164C317.138 179.945 316.665 180.726 316.179 181.506C315.692 182.287 315.249 182.989 314.85 183.613C314.478 184.211 314.207 184.627 314.037 184.86C313.694 186.047 313.419 187.183 313.214 188.269C313.01 189.328 312.883 190.43 312.836 191.576C312.818 192.002 312.815 192.389 312.827 192.736C312.865 193.112 312.959 193.409 313.11 193.629C313.237 193.794 313.378 193.92 313.535 194.007C313.69 194.12 313.873 194.221 314.083 194.31C314.399 194.403 314.551 194.597 314.539 194.89C314.519 195.369 314.229 195.597 313.67 195.574ZM316.245 178.947C317.33 177.257 318.29 175.683 319.125 174.223C319.961 172.737 320.647 171.337 321.182 170.025C320.058 171.366 319.105 172.794 318.321 174.309C317.537 175.825 316.845 177.371 316.245 178.947ZM304.06 190.809C304.833 190.841 305.656 190.622 306.53 190.151C307.431 189.655 308.283 189.064 309.086 188.376C309.805 187.766 310.472 187.14 311.086 186.498C311.701 185.83 312.277 185.147 312.813 184.449C313.065 183.525 313.343 182.616 313.647 181.721C313.978 180.827 314.336 179.935 314.72 179.043C314.322 178.359 313.736 178.001 312.963 177.969C312.164 177.936 311.259 178.205 310.247 178.777C309.264 179.323 308.301 180.016 307.358 180.858C306.442 181.7 305.648 182.508 304.975 183.281C303.568 185.01 302.823 186.874 302.74 188.872C302.687 190.124 303.127 190.77 304.06 190.809ZM318.293 192.204C317.574 192.174 317.228 191.826 317.256 191.16C317.286 190.44 317.634 190.095 318.3 190.122C319.019 190.152 319.365 190.5 319.337 191.167C319.307 191.886 318.959 192.232 318.293 192.204Z" fill="white"/>
<path d="M353.895 146.368C363.663 143.074 381.251 130.265 385.91 108.187C391.734 80.5889 345.294 44.2936 326.961 41.4727C308.629 38.6517 285.389 57.6178 289.26 71.5055C293.13 85.3932 317.759 88.7166 328.264 81.8604C352.139 66.278 312.259 15.8575 260.517 6.29666M260.517 6.29666C262.251 9.15076 265.66 15.5786 265.431 18.4571M260.517 6.29666C262.364 5.84055 267.569 4.14368 273.613 1.00504" stroke="white" stroke-width="0.902382"/>
</svg>
