<svg width="35" height="41" viewBox="0 0 35 41" fill="none" xmlns="http://www.w3.org/2000/svg">
<path d="M25.2437 22.949H9.85451C6.61467 22.949 4.0498 20.3841 4.0498 17.1443V11.2046C4.0498 7.96477 6.61467 5.3999 9.85451 5.3999H25.3787C28.4836 5.3999 31.0484 7.96477 31.0484 11.2046V17.2793C31.0484 20.3841 28.4836 22.949 25.2437 22.949ZM9.85451 8.09976C8.0996 8.09976 6.74967 9.4497 6.74967 11.2046V17.2793C6.74967 18.8992 8.0996 20.2491 9.85451 20.2491H25.3787C27.1336 20.2491 28.4836 18.8992 28.4836 17.1443V11.2046C28.3486 9.4497 26.9986 8.09976 25.2437 8.09976H9.85451Z" fill="white"/>
<path d="M21.5989 13.4992H13.4993C12.6894 13.4992 12.1494 12.9592 12.1494 12.1492C12.1494 11.3393 12.6894 10.7993 13.4993 10.7993H21.5989C22.4089 10.7993 22.9489 11.3393 22.9489 12.1492C22.9489 12.9592 22.4089 13.4992 21.5989 13.4992Z" fill="white"/>
<path d="M8.63959 8.23458H26.5937C26.9987 8.23458 27.5386 7.96459 27.6736 7.55961C27.9436 7.15463 27.9436 6.74965 27.8086 6.20968C25.7837 2.15989 22.4089 0 17.5491 0C12.6894 0 9.31456 2.15989 7.42466 6.34467C7.15467 6.74965 7.15467 7.28963 7.42466 7.69461C7.69464 8.09959 8.09962 8.23458 8.63959 8.23458Z" fill="white"/>
<path d="M12.1493 26.0537V28.0786C10.9344 28.3486 9.71947 28.7536 8.63953 29.1586C10.7994 30.5085 14.0393 31.3185 17.5491 31.3185C21.0589 31.3185 24.2987 30.5085 26.4586 29.1586C25.3787 28.7536 24.1637 28.3486 22.9488 28.0786V26.0537C24.1637 25.1088 25.2437 23.7588 26.1886 22.2739C26.4586 21.8689 26.4586 21.329 26.1886 20.924C25.9186 20.519 25.5137 20.249 24.9737 20.249H10.1245C9.58448 20.249 9.1795 20.519 8.90951 20.924C8.63953 21.329 8.63953 21.8689 8.90951 22.2739C9.98946 23.7588 10.9344 25.1088 12.1493 26.0537Z" fill="white"/>
<path d="M29.1585 30.6436C26.5936 32.8034 22.4089 34.1534 17.5491 34.1534C12.8243 34.1534 8.63956 32.8034 5.9397 30.6436C2.56487 32.8034 0.404979 35.7733 0 39.0131C0 39.4181 0.134993 39.8231 0.269986 40.0931C0.404979 40.3631 1.07994 40.498 1.34993 40.498H33.7483C34.1533 40.498 34.5582 40.3631 34.6932 40.0931C34.8282 39.8231 35.0982 39.4181 34.9632 39.0131C34.6932 35.6383 32.3983 32.6685 29.1585 30.6436Z" fill="white"/>
</svg>
